<svg width="24" height="24" viewBox="0 0 24 24" fill="none" xmlns="http://www.w3.org/2000/svg">
<path fill-rule="evenodd" clip-rule="evenodd" d="M21.9 6.24074H2.1C1.49281 6.24074 0.999998 5.73884 0.999998 5.12037C0.999998 4.5019 1.49281 4 2.1 4H21.9C22.5072 4.00004 23 4.50193 23 5.1204C23 5.73884 22.5072 6.24074 21.9 6.24074ZM11.3105 18.666H21.9C22.5072 18.666 23 19.1679 23 19.7864C23 20.4049 22.5072 20.9068 21.9 20.9068H11.3105C10.7033 20.9068 10.2105 20.4049 10.2105 19.7863C10.2105 19.1679 10.7033 18.666 11.3105 18.666ZM21.9 11.334H2.1C1.49281 11.334 0.999998 11.836 0.999998 12.4544C0.999998 13.0728 1.49281 13.5748 2.1 13.5748H21.9C22.5072 13.5748 23 13.0729 23 12.4544C23 11.8359 22.5072 11.334 21.9 11.334Z" fill="#2C3E5C"/>
</svg>
