<svg width="20" height="20" viewBox="0 0 20 20" fill="none" xmlns="http://www.w3.org/2000/svg">
<path opacity="0.2" d="M8.0197 17.8856C11.7693 17.8856 14.8089 14.8459 14.8089 11.0964C14.8089 7.34677 11.7693 4.30713 8.0197 4.30713C4.27011 4.30713 1.23047 7.34677 1.23047 11.0964C1.23047 14.8459 4.27011 17.8856 8.0197 17.8856Z" fill="#4289FF"/>
<path d="M8.09598 16.3438L8.00986 16.1971C6.69447 13.9559 3.19901 9.19986 3.1637 9.15209L3.11328 9.08359L4.30417 7.90667L8.07386 10.5389C10.4474 7.45898 12.6617 5.34352 14.1061 4.10817C15.6861 2.75682 16.7146 2.13471 16.725 2.12875L16.7484 2.11475H18.7684L18.5755 2.28659C13.6128 6.70682 8.23382 16.1016 8.18024 16.196L8.09598 16.3438Z" fill="#4289FF"/>
</svg>
