<svg width="20" height="20" viewBox="0 0 20 20" fill="none" xmlns="http://www.w3.org/2000/svg">
<rect width="20" height="20" fill="white"/>
<path d="M13.6836 7.35562C13.9379 7.60993 13.9379 8.02217 13.6836 8.27636L9.31599 12.6441C9.06168 12.8982 8.64956 12.8982 8.39525 12.6441L6.31611 10.5648C6.0618 10.3106 6.0618 9.89837 6.31611 9.64418C6.5703 9.38987 6.98254 9.38987 7.23673 9.64418L8.85556 11.263L12.7628 7.35562C13.0171 7.10143 13.4294 7.10143 13.6836 7.35562ZM18.3332 9.99984C18.3332 14.6061 14.6054 18.3332 9.99984 18.3332C5.39359 18.3332 1.6665 14.6054 1.6665 9.99984C1.6665 5.39359 5.39423 1.6665 9.99984 1.6665C14.6061 1.6665 18.3332 5.39423 18.3332 9.99984ZM17.0311 9.99984C17.0311 6.1133 13.8859 2.96859 9.99984 2.96859C6.1133 2.96859 2.96859 6.11381 2.96859 9.99984C2.96859 13.8864 6.11381 17.0311 9.99984 17.0311C13.8864 17.0311 17.0311 13.8859 17.0311 9.99984Z" fill="#4289FF"/>
</svg>
