<svg width="170" height="170" viewBox="0 0 170 170" fill="none" xmlns="http://www.w3.org/2000/svg">
<circle opacity="0.1" cx="85" cy="85" r="85" fill="#FF8486"/>
<path d="M62.175 69.8748C60.9744 69.8748 60 68.9004 60 67.6998V65.5249C60 61.9275 62.9275 59 66.5249 59H68.6998C69.9004 59 70.8748 59.9744 70.8748 61.175C70.8748 62.3755 69.9004 63.3499 68.6998 63.3499H66.5249C65.3265 63.3499 64.3499 64.3265 64.3499 65.5249V67.6998C64.3499 68.9004 63.3755 69.8748 62.175 69.8748Z" fill="#FF8486"/>
<path d="M101.325 69.8748C100.124 69.8748 99.1499 68.9004 99.1499 67.6998V65.5249C99.1499 64.3265 98.1733 63.3499 96.9749 63.3499H94.8C93.5994 63.3499 92.625 62.3755 92.625 61.175C92.625 59.9744 93.5994 59 94.8 59H96.9749C100.572 59 103.5 61.9275 103.5 65.5249V67.6998C103.5 68.9004 102.525 69.8748 101.325 69.8748Z" fill="#FF8486"/>
<path d="M86.0994 63.3499H77.3996C76.199 63.3499 75.2246 62.3755 75.2246 61.175C75.2246 59.9744 76.199 59 77.3996 59H86.0994C87.2999 59 88.2743 59.9744 88.2743 61.175C88.2743 62.3755 87.2999 63.3499 86.0994 63.3499Z" fill="#FF8486"/>
<path d="M81.7495 102.499H77.3996C76.199 102.499 75.2246 101.525 75.2246 100.324C75.2246 99.1235 76.199 98.1492 77.3996 98.1492H81.7495C82.95 98.1492 83.9244 99.1235 83.9244 100.324C83.9244 101.525 82.95 102.499 81.7495 102.499Z" fill="#FF8486"/>
<path d="M68.6998 102.499H66.5249C62.9275 102.499 60 99.5715 60 95.9742V93.7992C60 92.5986 60.9744 91.6243 62.175 91.6243C63.3755 91.6243 64.3499 92.5986 64.3499 93.7992V95.9742C64.3499 97.1726 65.3265 98.1491 66.5249 98.1491H68.6998C69.9004 98.1491 70.8748 99.1235 70.8748 100.324C70.8748 101.525 69.9004 102.499 68.6998 102.499Z" fill="#FF8486"/>
<path d="M62.175 87.2743C60.9744 87.2743 60 86.3 60 85.0994V76.3996C60 75.199 60.9744 74.2246 62.175 74.2246C63.3755 74.2246 64.3499 75.199 64.3499 76.3996V85.0994C64.3499 86.3 63.3755 87.2743 62.175 87.2743Z" fill="#FF8486"/>
<path d="M101.323 82.9244C100.123 82.9244 99.1484 81.95 99.1484 80.7495V76.3996C99.1484 75.199 100.123 74.2246 101.323 74.2246C102.524 74.2246 103.498 75.199 103.498 76.3996V80.7495C103.498 81.95 102.524 82.9244 101.323 82.9244Z" fill="#FF8486"/>
<path d="M109.58 99.5065L89.0633 78.9901C88.7958 78.7226 88.4413 78.5747 88.0606 78.5747C87.2777 78.5747 86.6426 79.2098 86.6426 79.9928V109.779C86.6426 110.562 87.2777 111.197 88.0606 111.197C88.4434 111.197 88.8045 111.047 89.0807 110.764L97.6 101.929H108.581C109.364 101.929 109.999 101.294 109.999 100.511C109.999 100.137 109.847 99.7718 109.58 99.5065Z" fill="#FF8486"/>
</svg>
