<svg width="74" height="26" viewBox="0 0 74 26" fill="none" xmlns="http://www.w3.org/2000/svg">
<path d="M23.8092 21.8593C23.9503 22.0013 24.0621 22.1701 24.1384 22.3559C24.2146 22.5417 24.2538 22.741 24.2536 22.9421C24.2536 23.4095 24.0463 23.7859 23.8096 24.0251C23.3577 24.4805 22.7429 24.9548 21.9396 25.2904C21.2443 25.5815 20.4989 25.7309 19.7462 25.7301H5.73209C4.14916 25.7301 2.71626 25.0826 1.67888 24.0354C0.641495 22.988 0 21.5415 0 19.9429V5.79337C0 4.1952 0.641246 2.74863 1.67888 1.70151C2.71614 0.654514 4.14916 0.00684137 5.73209 0.00684137H19.746C20.4987 0.00579772 21.2442 0.155021 21.9396 0.445923C22.8659 0.833545 23.4583 1.3115 24.03 1.93464C24.2577 2.18273 24.4744 2.54985 24.4744 3.01761C24.4744 3.40939 24.3261 3.80129 24.03 4.10046C23.8893 4.24286 23.7221 4.3558 23.5381 4.43279C23.354 4.50978 23.1567 4.54931 22.9575 4.54911C22.5554 4.54821 22.1699 4.38696 21.885 4.10046C21.4807 3.69196 21.2589 3.48223 20.7954 3.28408C20.4635 3.14211 20.1067 3.06915 19.7463 3.06957H5.73209C4.98804 3.06957 4.31352 3.37504 3.82505 3.86872C3.3367 4.36165 3.03402 5.04241 3.03402 5.7935V19.943C3.03402 20.6949 3.3367 21.3754 3.82505 21.8683C4.31352 22.3616 4.98804 22.6675 5.73209 22.6675H19.746C20.1176 22.6675 20.4723 22.5915 20.7951 22.453C21.1199 22.3134 21.4149 22.1118 21.664 21.8594C21.9489 21.5728 22.3345 21.4116 22.7367 21.411C22.9359 21.4107 23.1332 21.4501 23.3173 21.527C23.5013 21.604 23.6685 21.7169 23.8092 21.8593ZM19.7014 20.0364C19.6468 18.9193 18.8993 17.1995 17.0204 16.9734H10.3359L18.0374 9.52957C18.3625 9.2163 19.0923 8.15421 18.5727 7.01135C18.1553 6.09243 17.4563 5.70077 16.2348 5.70077H6.64099C6.68012 6.9858 7.31526 8.51994 9.00212 8.79458H14.4841L6.38243 16.482C6.0537 16.8005 5.51314 17.7797 5.93981 18.7743C6.32486 19.6705 6.97371 20.0364 8.17969 20.0364H19.7014ZM41.6487 13.0231V18.7273C41.6487 20.8374 41.0092 22.6721 39.5591 24.1355C38.2558 25.4519 36.6088 25.9935 34.8005 25.9935C31.2544 25.9935 29.4275 23.2272 29.4275 23.2272C30.3809 22.2646 31.707 21.6797 33.0053 22.465C33.2237 22.5969 33.8782 22.9578 34.8149 22.9578C38.0968 22.9578 38.631 19.9969 38.631 19.1155C37.4941 19.8094 36.2102 20.1548 34.7848 20.1555H34.7829C32.9285 20.1548 31.302 19.563 29.9491 18.3949L29.9313 18.3795C28.6037 17.0941 27.9245 15.5086 27.9131 13.6652C27.9042 13.2867 27.9042 12.074 27.9131 11.792C27.9174 9.97985 28.5962 8.40042 29.9313 7.1096C31.2792 5.80621 32.9119 5.14494 34.7828 5.14444H34.7844C37.2708 5.14444 39.0962 6.3872 39.9402 7.42073C40.1555 7.6838 40.2802 8.02286 40.2802 8.39036C40.2802 8.81585 40.11 9.20133 39.8336 9.4805C39.6919 9.62379 39.5236 9.73741 39.3383 9.81483C39.1529 9.89225 38.9543 9.93196 38.7538 9.93166C38.3364 9.93166 37.9373 9.75553 37.6835 9.48856C36.7363 8.49428 35.8356 8.18063 34.7838 8.1805C33.7321 8.18063 32.8554 8.53491 32.104 9.26298C31.3575 9.97368 31.0053 10.7819 30.9949 11.8098C30.9782 12.2595 30.9782 13.2157 30.9943 13.6473C31.0026 14.7005 31.3533 15.5207 32.0978 16.2408C32.8739 16.956 33.7548 17.3065 34.7839 17.3071C35.8131 17.3065 36.6942 16.956 37.4767 16.2344C37.885 15.8388 38.1749 15.4113 38.3536 14.9305C38.4972 14.5444 38.7974 13.7387 39.8124 13.3298C40.6678 12.9861 41.6487 13.0231 41.6487 13.0231ZM55.9824 13.3299C54.9673 13.7386 54.6674 14.544 54.5237 14.9305C54.3447 15.4112 54.0546 15.8391 53.6462 16.2344C52.8643 16.9559 51.983 17.3064 50.9537 17.3069C49.9243 17.3064 49.0445 16.9559 48.2678 16.2408C47.5227 15.5207 47.1726 14.7006 47.164 13.6473C47.1483 13.2153 47.1483 12.2595 47.1651 11.8098C47.1753 10.7818 47.527 9.97368 48.2739 9.26285C49.0249 8.53466 49.9018 8.18038 50.9537 8.18038C52.0052 8.1805 52.9063 8.49415 53.8531 9.48843C54.107 9.75553 54.5063 9.93153 54.9238 9.93153C55.3456 9.93153 55.7276 9.75905 56.0032 9.48038C56.1452 9.33737 56.2578 9.16744 56.3346 8.98035C56.4113 8.79327 56.4507 8.59272 56.4504 8.39023C56.4504 8.02299 56.3248 7.68393 56.1104 7.42048C55.2655 6.38682 53.4406 5.14419 50.9546 5.14419H50.9529C49.0816 5.14469 47.4497 5.80595 46.1014 7.10935C44.766 8.40017 44.0873 9.97959 44.0833 11.7918C44.0737 12.0737 44.0737 13.2864 44.0833 13.6648C44.0946 15.5082 44.7737 17.0939 46.1014 18.3793L46.1187 18.3948C47.4719 19.5628 49.0983 20.1546 50.9529 20.1553H50.9544C52.3798 20.1546 53.6633 19.8093 54.8004 19.1152C54.8004 19.9965 54.2659 22.9576 50.9844 22.9576C50.0477 22.9576 49.3928 22.5968 49.1746 22.4649C47.8764 21.6796 46.55 22.2641 45.5969 23.2269C45.5969 23.2269 47.4237 25.9933 50.9703 25.9933C52.7784 25.9933 54.4252 25.4518 55.729 24.1354C57.1792 22.6719 57.818 20.8372 57.818 18.7271V13.0227C57.8173 13.0231 56.837 12.9861 55.9824 13.3299ZM73.993 11.8043C73.9889 9.9806 73.3099 8.4008 71.9754 7.10948C70.627 5.80595 68.9941 5.14482 67.1226 5.14432H67.121C65.2501 5.14482 63.6182 5.80608 62.2694 7.10948C60.9346 8.40029 60.2559 9.97972 60.2514 11.7919C60.2423 12.0737 60.2423 13.2865 60.2514 13.665C60.2629 15.5082 60.9425 17.0939 62.2694 18.3793L62.2875 18.3948C63.64 19.5628 65.2665 20.1548 67.121 20.1554H67.123C68.9758 20.1548 70.603 19.5628 71.9576 18.3954L71.9755 18.3793C73.3025 17.0939 73.9814 15.508 73.993 13.6721C74.0022 13.2866 74.0022 12.0738 73.993 11.8043ZM67.1221 17.3071C66.0932 17.3065 65.2128 16.956 64.436 16.2408C63.6914 15.5205 63.3408 14.7008 63.3327 13.6473C63.3162 13.2154 63.3162 12.2595 63.3332 11.8098C63.3439 10.7819 63.6957 9.97368 64.442 9.26298C65.1935 8.53466 66.0699 8.1805 67.122 8.1805C68.1737 8.18063 69.0503 8.53491 69.8047 9.26637C70.5494 9.9738 70.901 10.782 70.9124 11.8197C70.9266 12.2404 70.9327 13.192 70.9124 13.6594C70.9032 14.7009 70.5516 15.5217 69.8148 16.2345C69.0325 16.956 68.1514 17.3067 67.1221 17.3071ZM25.4799 5.70077C23.8891 5.70367 22.4456 7.05047 22.4456 8.49503V20.0364C24.0364 20.0329 25.4799 18.6866 25.4799 17.2421V5.70077Z" fill="#F48C00"/>
</svg>
