<svg width="84" height="35" viewBox="0 0 84 35" fill="none" xmlns="http://www.w3.org/2000/svg">
<path d="M23.913 11.3836C23.913 5.96113 15.2226 0 9.90869 0C4.40032 0 2.98306 5.6766 2.98306 10.2347C2.98306 12.3544 3.36941 14.1687 4.12044 15.6591C1.6047 17.0127 0 18.9809 0 21.0258C0 24.5929 6.14719 30.8709 16.149 30.8709C16.4996 30.8709 16.8299 30.8595 17.1435 30.8379C19.0721 33.9379 22.0647 35 23.3749 35C26.9572 35 27.7969 30.4102 28.6595 27.8165C29.3901 25.6239 30.2023 23.4237 31.1134 21.2983C31.6342 20.0823 32.0225 18.8396 32.0225 17.5051C32.0225 14.3962 29.3837 11.3836 23.913 11.3836Z" fill="#009900"/>
<path d="M77.3054 13.0185C74.8623 13.0185 72.8196 13.4614 70.9618 14.194V26.4255H75.0925V16.6039C75.6854 16.3409 76.4339 16.1946 77.204 16.1946C79.4393 16.1946 79.8664 17.5456 79.8664 20.048L79.8683 26.4249H83.999V19.4416C83.9983 15.5323 82.6875 13.0185 77.3054 13.0185ZM37.6719 8.46289H41.7891V26.4268H37.6719V8.46289ZM46.521 26.4261H51.4026L46.287 19.2116L50.9793 13.4925H46.2908L41.7981 19.3573L46.521 26.4261ZM60.1772 16.1508C61.9808 16.1508 63.1736 17.2668 63.1736 19.844C63.1736 22.3401 62.2307 23.7032 60.0082 23.7032C59.3694 23.7032 58.5642 23.5739 58.1542 23.4161V16.5405C58.737 16.2738 59.4459 16.1508 60.1772 16.1508ZM54.0351 14.1946V31.4557H58.1542V26.5269C59.034 26.6859 59.7226 26.7246 60.4959 26.7246C65.0372 26.7246 67.4235 24.1398 67.4235 19.8142C67.4235 15.4544 65.076 13.0191 60.2084 13.0191C58.0293 13.0185 55.7507 13.4925 54.0351 14.1946Z" fill="#009900"/>
<path d="M16.3908 14.5819V12.5528C15.9011 12.414 15.3171 12.3449 14.73 12.3449C12.3475 12.3449 11.175 13.945 11.175 15.5634C11.175 17.1039 11.7456 18.5703 13.8948 21.8801C14.7552 21.7651 15.6211 21.6949 16.4889 21.6697C14.6165 18.2173 14.16 17.0057 14.16 16.1211C14.16 15.0932 14.7555 14.5698 15.9668 14.5698C16.13 14.5692 16.262 14.5723 16.3908 14.5819ZM9.89674 17.576C9.72205 17.1134 9.59263 16.3682 9.5429 15.8277C7.64557 15.765 6.21875 16.8397 6.21875 18.3669C6.21875 19.5931 6.84801 20.6805 9.46512 22.8864C10.2247 22.6379 10.9959 22.4264 11.7762 22.2527C9.2152 19.8808 8.81865 19.2496 8.81865 18.5405C8.81929 18.019 9.18333 17.6793 9.89674 17.576ZM18.1427 14.5819V12.5528C18.6324 12.414 19.2163 12.3449 19.8035 12.3449C22.186 12.3449 23.3585 13.945 23.3585 15.5634C23.3585 17.1039 22.7879 18.5703 20.6387 21.8801C19.7785 21.7651 18.9128 21.6949 18.0452 21.6697C19.9176 18.2173 20.3741 17.0057 20.3741 16.1211C20.3741 15.0932 19.7787 14.5698 18.5667 14.5698C18.4253 14.5683 18.2838 14.5723 18.1427 14.5819ZM24.6367 17.576C24.8114 17.1134 24.9409 16.3682 24.9906 15.8277C26.8879 15.765 28.3147 16.8397 28.3147 18.3669C28.3147 19.5931 27.6855 20.6805 25.0677 22.8864C24.3082 22.6378 23.5369 22.4263 22.7566 22.2527C25.3183 19.8808 25.7142 19.2496 25.7142 18.5405C25.7148 18.019 25.3502 17.6793 24.6367 17.576ZM17.2667 25.987C19.1851 25.987 21.1398 26.2367 23.1749 26.8387L23.8698 24.5694C21.7272 23.9349 19.5031 23.6136 17.2674 23.6157C15.1724 23.6157 12.9487 23.8927 10.6643 24.5694L11.3593 26.8387C13.276 26.2695 15.2663 25.9826 17.2667 25.987ZM17.2661 11.229L15.1526 9.12768L17.2667 7.02637L19.3808 9.12895L17.2661 11.229Z" fill="white"/>
</svg>
