<svg width="104" height="29" viewBox="0 0 104 29" fill="none" xmlns="http://www.w3.org/2000/svg">
<path fill-rule="evenodd" clip-rule="evenodd" d="M19.2349 17.6923L9.64539 27.2126L9.53125 27.0987V8.00098L19.2349 17.5783V17.6923Z" fill="#F3C000"/>
<path fill-rule="evenodd" clip-rule="evenodd" d="M28.2543 14.4996L28.8251 12.0482H32.0786L32.6495 14.4996H35.104L32.0788 3.4971H28.9963L25.9141 14.4996H28.2543ZM31.5649 10.338H29.3388L30.3662 5.54944H30.4232L31.5649 10.338ZM39.442 9.71091H40.812L41.4968 9.76783L42.0107 10.11L42.2389 10.623L42.3531 11.1931L42.2389 11.9343L41.8964 12.4474L41.4968 12.6753L41.0403 12.7892H39.442V9.71091ZM39.442 5.15024H40.869L41.554 5.32131L42.0107 5.83436L42.1818 6.57554L42.0678 7.25965L41.8394 7.6587L41.3827 7.94376H39.4419L39.442 5.15024ZM41.2115 14.4996H41.7252L42.3531 14.3856L43.0381 14.2145L43.6089 13.8725L44.1226 13.3595L44.5792 12.6184L44.6362 11.5351V10.6801L44.408 9.99596L44.0655 9.42585L43.4376 9.02679L42.5814 8.74173L43.4376 8.45681L44.0655 7.94376L44.408 7.20258L44.465 6.34741L44.408 5.32131L44.0655 4.58026L43.5518 3.95308L42.8668 3.66816L42.0677 3.4971H37.0446V14.4996H41.2115ZM49.6023 14.4996V6.40447L52.6845 14.4996H55.7669V3.4971H53.5981V11.1361H53.5409L50.6297 3.4971H47.3762V14.4996H49.6023ZM59.4771 9.59691L60.9042 8.17175L59.4771 6.68953L57.936 8.17175L59.4771 9.59691ZM63.9865 14.4996L64.6714 12.0482H67.8109L68.3816 14.4996H70.8361L67.8679 3.4971H64.7285L61.6463 14.4996H63.9865ZM67.2972 10.338H65.0709L66.1555 5.54944L67.2972 10.338ZM75.06 14.4996V6.00542H75.117L77.1719 14.4996H79.3982L81.51 6.00542H81.5671V14.4996H83.7933V3.4971H80.2543L78.3706 10.9651H78.2566L76.544 3.49696H72.8338V14.4994L75.06 14.4996ZM89.2731 5.15024H90.3005L90.8142 5.26438L91.1566 5.49237L91.385 5.89142L91.499 6.57554L91.385 7.20258L91.2137 7.6587L90.8713 8.11469L90.3005 8.28575H89.2731V5.15024ZM89.2731 9.9389H89.8438L90.6429 9.99596L91.0424 10.281L91.385 10.623L91.499 11.1361L91.5561 11.7062V13.4735L91.8416 14.4996H94.0107L93.9537 13.8725L93.8394 12.9603L93.7824 11.9342V11.2503L93.6682 10.4521L93.3257 9.88211L92.9833 9.42599L92.5266 9.25492L92.07 9.08414H91.8416V9.02693L92.755 8.68494L93.3257 8.11483L93.7824 7.31672L93.8394 6.34754L93.6682 5.32144L93.3257 4.46641L92.812 3.89629L92.1841 3.55416L91.2137 3.49723H86.8757V14.4997H89.2731V9.9389ZM100.175 13.0173L99.4904 12.8464L99.0908 12.3903L98.8054 11.5922L98.7484 10.4519V7.4875L98.8054 6.34754L99.0908 5.54944L99.4904 5.09331L100.175 4.92225L100.86 5.09331L101.317 5.54944L101.545 6.34741L101.659 7.48764L101.716 8.9128L101.659 10.4519L101.545 11.5922L101.317 12.3903L100.86 12.8464L100.175 13.0173ZM100.175 14.6706L101.488 14.5566L102.401 14.2145L103.086 13.6445L103.6 12.8464L103.828 12.0482L104 11.1361V6.86046L103.828 5.89128L103.6 5.09331L103.086 4.29521L102.401 3.72509L101.488 3.3831L100.175 3.32617L98.9195 3.3831L97.9491 3.72509L97.2643 4.29521L96.8647 5.09331L96.5222 5.89142L96.4652 6.86059L96.3509 7.94362V9.99596L96.465 11.1361L96.5222 12.0483L96.8647 12.8464L97.2643 13.6445L97.9491 14.2145L98.9195 14.5566L100.175 14.6706Z" fill="#868686"/>
<path fill-rule="evenodd" clip-rule="evenodd" d="M0 1.78711H19.2361V17.6924L9.6466 8.17185V27.2123L0 17.6921V1.78711Z" fill="#009286"/>
</svg>
