<svg width="110" height="28" viewBox="0 0 110 28" fill="none" xmlns="http://www.w3.org/2000/svg">
<path d="M26.9102 14.0005C26.9102 17.5158 25.4926 20.8871 22.9693 23.3728C20.4459 25.8584 17.0236 27.2549 13.4551 27.2549C9.88657 27.2549 6.46422 25.8584 3.9409 23.3728C1.41758 20.8871 0 17.5158 0 14.0005C0 10.4852 1.41758 7.11389 3.9409 4.62821C6.46422 2.14253 9.88657 0.746094 13.4551 0.746094C17.0236 0.746094 20.4459 2.14253 22.9693 4.62821C25.4926 7.11389 26.9102 10.4852 26.9102 14.0005Z" fill="#EE3023"/>
<path d="M13.566 21.3869C9.8686 21.3998 6.0215 18.2962 6.00197 13.3009C5.99546 9.99853 7.8051 6.8244 10.1095 4.93916C12.3682 3.09881 15.4537 1.92534 18.2528 1.91252C18.5795 1.9004 18.9061 1.93496 19.2227 2.01511C17.9938 2.28193 16.8922 2.94931 16.096 3.90932C15.2998 4.86933 14.8557 6.06584 14.8353 7.30533C14.8353 7.3951 14.8353 7.48488 14.8484 7.52335C18.9493 8.50445 20.8045 10.9412 20.8175 14.3141C20.815 15.2481 20.6252 16.1725 20.259 17.0341C19.8928 17.8957 19.3574 18.6775 18.6836 19.3347C18.0098 19.9919 17.2108 20.5115 16.3326 20.8637C15.4544 21.2159 14.5142 21.3937 13.566 21.3869Z" fill="white"/>
<path d="M35.5997 19.4891L31.4922 9.81282H34.1806L36.7518 16.238L39.2385 9.81282H41.8032L37.8064 19.4891H35.5997ZM48.9571 14.6029C48.9601 14.2136 48.9119 13.8257 48.8139 13.4486C48.731 13.1149 48.5853 12.7996 48.3843 12.5188C48.2031 12.2644 47.9676 12.0521 47.6943 11.8968C47.4026 11.7347 47.0721 11.6528 46.7374 11.6596C46.4025 11.6524 46.072 11.7344 45.7805 11.8968C45.5043 12.0506 45.2663 12.2631 45.084 12.5188C44.8845 12.802 44.741 13.1196 44.6608 13.455C44.5634 13.83 44.5152 14.2158 44.5176 14.6029C44.5144 14.9921 44.5625 15.3801 44.6608 15.7571C44.7428 16.0898 44.8815 16.4063 45.0709 16.6933C45.251 16.9638 45.4977 17.1851 45.7879 17.3364C46.0781 17.4878 46.4025 17.5643 46.7309 17.559C47.0591 17.5688 47.3842 17.4941 47.6742 17.3423C47.9642 17.1905 48.2089 16.9668 48.3843 16.6933C48.5825 16.411 48.728 16.0961 48.8139 15.7635C48.9128 15.3844 48.9609 14.9942 48.9571 14.6029ZM51.4372 14.6093C51.4373 15.2403 51.3385 15.8675 51.1443 16.4689C50.9549 17.0621 50.6571 17.6163 50.2655 18.104C49.8456 18.6243 49.3076 19.0404 48.6949 19.3188C48.0822 19.5972 47.4117 19.7302 46.7374 19.7071C46.0623 19.7287 45.3914 19.5951 44.7778 19.3168C44.1643 19.0385 43.625 18.6233 43.2027 18.104C42.812 17.6157 42.5142 17.0617 42.3239 16.4689C41.9371 15.265 41.9371 13.9728 42.3239 12.7689C42.5144 12.182 42.8122 11.6344 43.2027 11.153C43.6001 10.6713 44.1001 10.2817 44.6674 10.0116C45.3136 9.70978 46.0223 9.56049 46.7374 9.57556C47.4075 9.55731 48.073 9.68991 48.6833 9.96327C49.2935 10.2366 49.8325 10.6435 50.259 11.153C50.6496 11.6275 50.949 12.1662 51.1443 12.7689C51.3396 13.3717 51.4372 13.9873 51.4372 14.6093ZM59.0272 11.9481C58.596 11.7692 58.1346 11.6713 57.6668 11.6596C57.3011 11.6421 56.9367 11.7152 56.607 11.872C56.2773 12.0288 55.9926 12.2644 55.779 12.5573C55.5734 12.8388 55.4192 13.1534 55.3234 13.4871C55.2224 13.8309 55.172 14.1872 55.1736 14.5452C55.1714 14.9336 55.2151 15.3209 55.3038 15.6994C55.3821 16.0412 55.5209 16.3668 55.7139 16.6612C55.8897 16.9321 56.1256 17.1602 56.4039 17.3281C56.6773 17.4948 57.0093 17.5846 57.3803 17.5846C57.7158 17.5773 58.0443 17.4892 58.3372 17.3281C58.618 17.1978 58.8567 16.9936 59.0272 16.7382V11.9481ZM59.229 19.4891L59.1314 18.7453C58.8721 19.0228 58.5632 19.251 58.2201 19.4186C57.7226 19.6282 57.1837 19.7255 56.643 19.7033C56.1024 19.6811 55.5736 19.54 55.0955 19.2903C54.5829 19.0125 54.1385 18.6273 53.7936 18.1617C53.4294 17.6722 53.1561 17.1229 52.9865 16.5394C52.8036 15.9141 52.7116 15.2664 52.7131 14.6157C52.7131 13.9809 52.8042 13.3653 52.993 12.7625C53.1766 12.1773 53.4703 11.6313 53.8587 11.153C54.2783 10.6406 54.8131 10.2313 55.421 9.95749C56.0288 9.68372 56.6929 9.55296 57.3608 9.57556C57.8816 9.57556 58.4349 9.67174 59.0272 9.8577V6.10646H61.5529V19.4891H59.229ZM68.6613 14.9491C68.1044 14.9859 67.5502 15.0544 67.0013 15.1543C66.4545 15.2633 66.077 15.4429 65.8622 15.7058C65.6611 15.9459 65.5507 16.2473 65.5497 16.5586C65.5497 16.8793 65.6669 17.1358 65.9078 17.3281C66.1993 17.5384 66.5559 17.6427 66.9167 17.6231C67.2422 17.6231 67.5677 17.559 67.8736 17.4243C68.163 17.2999 68.4292 17.1287 68.6613 16.9177V14.9491ZM68.8631 19.4763L68.7654 18.7581C68.4767 19.066 68.1205 19.3051 67.7239 19.457C66.8898 19.7822 65.9638 19.7959 65.1201 19.4955C64.5144 19.2966 63.9895 18.9113 63.6227 18.3965C63.2559 17.8816 63.0666 17.2644 63.0826 16.6356C63.0743 16.2121 63.1657 15.7925 63.3498 15.4097C63.5339 15.027 63.8057 14.6915 64.1437 14.4297C64.4853 14.1679 64.8649 13.9583 65.2698 13.8077C66.0451 13.5369 66.8523 13.3645 67.6718 13.2947L68.6482 13.205V13.0639C68.6482 12.5317 68.505 12.1533 68.2251 11.9225C67.8916 11.6783 67.4812 11.5579 67.0664 11.5826C66.3287 11.5863 65.6101 11.8147 65.0094 12.2367C64.8782 12.3188 64.7521 12.4088 64.6319 12.506L63.7922 10.7618C64.195 10.4608 64.6373 10.2149 65.1071 10.0308C66.3307 9.52981 67.6887 9.44408 68.9672 9.78717C69.4068 9.92252 69.809 10.1553 70.143 10.4677C70.477 10.78 70.7339 11.1636 70.894 11.589C71.0897 12.1254 71.1824 12.6929 71.1674 13.2627V19.4827L68.8631 19.4763ZM78.9723 8.31232C78.5223 8.11389 78.033 8.01747 77.5402 8.03017C77.1952 8.03017 76.8957 8.13277 76.6614 8.34438C76.4205 8.54958 76.3034 8.88943 76.3034 9.35754V9.81282H78.4255V11.8199H76.3229V19.4891H73.7972V11.8199H72.4953V9.81282H73.7972V9.29983C73.7972 8.665 73.8819 8.13277 74.0446 7.69673C74.1774 7.30614 74.4015 6.95177 74.6989 6.66217C74.9963 6.37258 75.3586 6.15587 75.7566 6.02951C76.9164 5.72438 78.1454 5.79865 79.2587 6.24112L78.9723 8.31232ZM85.8593 14.6029C85.861 14.2137 85.8129 13.8259 85.7161 13.4486C85.6332 13.1149 85.4875 12.7996 85.2864 12.5188C85.1053 12.2644 84.8698 12.0521 84.5964 11.8968C84.3048 11.7347 83.9743 11.6528 83.6395 11.6596C83.3047 11.6524 82.9741 11.7344 82.6827 11.8968C82.4072 12.0517 82.1695 12.2639 81.9861 12.5188C81.7864 12.8026 81.6408 13.1198 81.5565 13.455C81.3584 14.2122 81.3584 15.0064 81.5565 15.7635C81.6423 16.094 81.7831 16.4081 81.9731 16.6933C82.1511 16.9578 82.3897 17.1775 82.6696 17.3345C82.9673 17.4927 83.3014 17.5722 83.6395 17.5654C83.9673 17.5734 84.2915 17.4972 84.5803 17.3443C84.8691 17.1914 85.1124 16.967 85.2864 16.6933C85.4846 16.411 85.6301 16.0961 85.7161 15.7635C85.8137 15.3842 85.8619 14.9942 85.8593 14.6029ZM88.3394 14.6093C88.3406 15.2404 88.2418 15.8678 88.0465 16.4689C87.8582 17.0626 87.5603 17.6169 87.1677 18.104C86.7477 18.6243 86.2098 19.0404 85.5971 19.3188C84.9844 19.5972 84.3139 19.7302 83.6395 19.7071C82.9645 19.7287 82.2936 19.5951 81.68 19.3168C81.0665 19.0385 80.5272 18.6233 80.1049 18.104C79.7142 17.6157 79.4164 17.0617 79.2261 16.4689C78.8341 15.2658 78.8341 13.972 79.2261 12.7689C79.4146 12.1825 79.7102 11.6349 80.0984 11.153C80.4976 10.6706 80.9999 10.2809 81.5695 10.0116C82.2158 9.70978 82.9245 9.56049 83.6395 9.57556C84.3097 9.55731 84.9752 9.68991 85.5855 9.96327C86.1957 10.2366 86.7346 10.6435 87.1612 11.153C87.5517 11.6275 87.8512 12.1662 88.0465 12.7689C88.2417 13.3717 88.3394 13.9873 88.3394 14.6093ZM96.1833 19.4891V13.9745C96.2222 13.3685 96.0575 12.7668 95.7146 12.2623C95.5625 12.0665 95.3649 11.9095 95.1383 11.8046C94.9117 11.6997 94.6629 11.6499 94.4127 11.6596C94.0265 11.6552 93.647 11.7598 93.3191 11.961C93.0045 12.1483 92.7138 12.3722 92.4534 12.6279V19.4891H89.9277V9.81282H92.232L92.3492 10.5823C93.1439 9.9297 94.1463 9.57331 95.1808 9.57556C95.7016 9.57556 96.1768 9.65251 96.6129 9.8064C97.0385 9.95786 97.4204 10.2087 97.726 10.5374C98.045 10.8709 98.2859 11.3069 98.4551 11.8391C98.6243 12.3778 98.709 13.019 98.709 13.7628V19.4891H96.1833ZM106.566 13.4871C106.547 13.1862 106.475 12.8909 106.351 12.615C106.25 12.3877 106.104 12.1827 105.921 12.0123C105.606 11.7247 105.193 11.5645 104.763 11.5634C104.301 11.5716 103.858 11.7422 103.513 12.0443C103.305 12.2269 103.136 12.4487 103.017 12.6964C102.897 12.9442 102.829 13.213 102.816 13.4871H106.566ZM102.758 15.2762C102.81 16.0905 103.07 16.6805 103.539 17.0396C104.055 17.4175 104.687 17.6099 105.329 17.5846C105.93 17.5839 106.525 17.4752 107.087 17.264C107.293 17.1836 107.493 17.0894 107.686 16.9819C107.817 16.9082 107.939 16.82 108.05 16.7189L108.727 18.7453C108.344 19.0005 107.925 19.1993 107.484 19.3352C106.678 19.5786 105.84 19.704 104.997 19.7071C104.377 19.7093 103.76 19.6073 103.174 19.4057C102.605 19.2101 102.087 18.8926 101.658 18.4759C101.203 18.0272 100.848 17.4899 100.616 16.8985C100.341 16.1821 100.208 15.4201 100.226 14.6542C100.226 13.8334 100.349 13.1152 100.584 12.4868C100.875 11.6253 101.438 10.8781 102.191 10.3544C102.944 9.83061 103.848 9.55772 104.769 9.57556C105.363 9.56973 105.952 9.6719 106.507 9.87694C107.035 10.0757 107.49 10.3899 107.874 10.8067C108.265 11.23 108.571 11.775 108.792 12.4483C109.02 13.1152 109.131 13.9103 109.131 14.8337V15.2762H102.758Z" fill="#EE3023"/>
</svg>
