<svg width="120" height="18" viewBox="0 0 120 18" fill="none" xmlns="http://www.w3.org/2000/svg">
<path d="M15.717 17.0688L23.4187 6.5429H32.9754C34.032 6.5429 34.0188 6.9457 33.5024 7.65061L31.5526 10.3218C31.2812 10.6902 30.7911 11.3606 32.4142 11.3606H45.2144C44.1526 12.8287 40.6956 17.0688 34.4984 17.0688H15.717ZM59.8195 11.358L55.6432 17.0688H44.6268L48.8031 11.358H59.8195ZM76.6932 10.0648H49.7517L57.1188 0H68.1299L63.9088 5.77174H68.8229L73.0492 0H84.0603L76.6932 10.0648ZM75.7473 11.358L71.571 17.0688H60.5599L64.7362 11.358H75.7473ZM0 13.6105H16.2255L15.3402 14.8216H0V13.6105ZM0 11.358H17.875L16.987 12.569H0V11.358ZM0 15.863H14.5788L13.6961 17.0688H0V15.863ZM120 14.8216H103.832L104.72 13.6105H120V14.8216ZM120 17.0688H102.191L103.071 15.863H120V17.0688ZM106.367 11.358H120V12.5717H105.482L106.367 11.358ZM99.311 0L91.9439 10.0648H80.274L87.6464 0H99.311ZM79.3307 11.358C79.3307 11.358 78.5271 12.4657 78.1345 12.9957C76.7538 14.8772 77.9738 17.0661 82.4873 17.0661H100.173L104.349 11.358H79.3307Z" fill="#D80613"/>
</svg>
