<svg width="61" height="61" viewBox="0 0 61 61" fill="none" xmlns="http://www.w3.org/2000/svg">
<path fill-rule="evenodd" clip-rule="evenodd" d="M0 0H61V61H0V0Z" fill="white"/>
<path fill-rule="evenodd" clip-rule="evenodd" d="M19.3091 40.2057C19.3091 39.106 19.7085 37.7889 21.0212 37.7889C22.3339 37.7889 22.7494 39.106 22.7494 40.2057C22.7494 41.3051 22.3339 42.6045 21.0212 42.6045C19.7085 42.6045 19.3091 41.3051 19.3091 40.2057ZM16.4743 40.2057C16.4743 42.8054 18.3417 44.7732 21.0209 44.7732C23.6994 44.7732 25.5843 42.8054 25.5843 40.2057C25.5843 37.6056 23.6994 35.6214 21.0209 35.6214C18.3417 35.6214 16.4743 37.6056 16.4743 40.2057ZM31.9654 37.7889C33.2145 37.7889 33.6477 39.0057 33.6477 40.1057C33.6477 41.2883 33.2145 42.6045 31.9486 42.6045C30.6663 42.6045 30.2328 41.6215 30.2328 40.1057C30.2328 38.323 31.1989 37.7889 31.9654 37.7889ZM27.4979 47.4207H30.3334V43.5893H30.3663C30.9496 44.3732 31.7648 44.7732 32.8313 44.7732C35.2813 44.7732 36.4829 42.6386 36.4829 40.3889C36.4829 37.9559 35.3319 35.6214 32.6148 35.6214C31.6154 35.6214 30.7828 36.0546 30.2328 36.8718H30.1996V35.8711H27.4979V47.4207ZM41.015 42.0336C41.015 41.3481 41.5485 41.0801 42.1821 40.9291C42.8001 40.7617 43.5334 40.7117 43.9331 40.4607C44.0005 42.2522 43.5505 43.0222 42.1989 43.0222C41.565 43.0219 41.015 42.7374 41.015 42.0336ZM41.1811 38.5186C41.3153 37.7996 41.8159 37.4563 42.5989 37.4563C43.1831 37.4563 43.9666 37.7012 43.9666 38.3392C43.9666 38.8708 43.6995 39.0382 43.2163 39.1386C41.2482 39.5402 38.1801 39.3227 38.1801 42.1516C38.1801 43.9387 39.4798 44.7732 41.1314 44.7732C42.165 44.7732 43.2489 44.4725 43.9834 43.7054C44.0166 43.9893 44.0495 44.2561 44.1495 44.5225H46.9977C46.6638 43.8393 46.6638 43.039 46.6638 42.3016V38.5028C46.6638 36.0711 44.6821 35.6214 42.6321 35.6214C41.6488 35.6214 40.6476 35.7882 39.8805 36.2214C39.1127 36.6717 38.5801 37.4053 38.5292 38.5186H41.1811ZM49.2034 32.6191H52.038V38.7563L54.6232 35.8711H57.909L54.7409 39.1401L58.309 44.5225H54.8896L52.7722 41.0414L52.038 41.7579V44.5225H49.2034V32.6191ZM14.3369 32.6191L10.1488 41.4718H10.1153L5.92692 32.6191H2.69141L8.39753 44.5225H11.8666L17.5727 32.6191H14.3369Z" fill="black"/>
<path fill-rule="evenodd" clip-rule="evenodd" d="M33.6453 26.4261L40.5093 12.1211H16.6883L9.82422 26.4261H33.6453Z" fill="#106955"/>
<path fill-rule="evenodd" clip-rule="evenodd" d="M44.3108 32.6293L51.1749 18.3242H25.825L18.9609 32.6293H44.3108Z" fill="#CF4037"/>
<path fill-rule="evenodd" clip-rule="evenodd" d="M40.5155 18.3242L41.4763 23.2341L30.8115 23.2385L34.522 18.3242H40.5155ZM41.8228 25.2497L47.8498 25.2582L47.2922 26.419L21.9395 26.4256L22.4993 25.2582L29.2168 25.2541L30.2058 24.0123H41.5693L41.8228 25.2497Z" fill="white"/>
</svg>
