<svg width="14" height="3" viewBox="0 0 14 3" fill="none" xmlns="http://www.w3.org/2000/svg">
<path d="M1.44575 2.256C1.20042 2.256 0.98175 2.16 0.78975 1.968C0.608417 1.76533 0.51775 1.52 0.51775 1.232C0.51775 0.944 0.61375 0.698667 0.80575 0.496C0.99775 0.293333 1.21642 0.192 1.46175 0.192C1.72842 0.192 1.94708 0.293333 2.11775 0.496C2.29908 0.698667 2.38975 0.944 2.38975 1.232C2.38975 1.52 2.29375 1.76533 2.10175 1.968C1.90975 2.16 1.69108 2.256 1.44575 2.256ZM6.98325 2.256C6.73792 2.256 6.51925 2.16 6.32725 1.968C6.14592 1.76533 6.05525 1.52 6.05525 1.232C6.05525 0.944 6.15125 0.698667 6.34325 0.496C6.53525 0.293333 6.75392 0.192 6.99925 0.192C7.26592 0.192 7.48458 0.293333 7.65525 0.496C7.83658 0.698667 7.92725 0.944 7.92725 1.232C7.92725 1.52 7.83125 1.76533 7.63925 1.968C7.44725 2.16 7.22858 2.256 6.98325 2.256ZM12.5208 2.256C12.2754 2.256 12.0568 2.16 11.8648 1.968C11.6834 1.76533 11.5928 1.52 11.5928 1.232C11.5928 0.944 11.6888 0.698667 11.8808 0.496C12.0728 0.293333 12.2914 0.192 12.5368 0.192C12.8034 0.192 13.0221 0.293333 13.1928 0.496C13.3741 0.698667 13.4648 0.944 13.4648 1.232C13.4648 1.52 13.3688 1.76533 13.1768 1.968C12.9848 2.16 12.7661 2.256 12.5208 2.256Z" fill="#5D83A3"/>
</svg>
