<svg width="30" height="30" viewBox="0 0 30 30" fill="none" xmlns="http://www.w3.org/2000/svg">
<path d="M6.79688 25.3125H25.5469C26.0323 25.3125 26.4258 24.919 26.4258 24.4336V0.878906C26.4258 0.393516 26.0323 0 25.5469 0H6.79688C5.0199 0 3.57422 1.44568 3.57422 3.22266V26.7773C3.57422 28.5543 5.0199 30 6.79688 30H25.5469C26.0323 30 26.4258 29.6065 26.4258 29.1211C26.4258 28.6357 26.0323 28.2422 25.5469 28.2422H6.79688C5.98916 28.2422 5.33203 27.5851 5.33203 26.7773C5.33203 25.9696 5.98916 25.3125 6.79688 25.3125Z" fill="url(#paint0_linear_8319_832)"/>
<path d="M18.1004 10.1042L20.3507 18.2051C20.6558 18.1443 20.9109 17.9255 21.0121 17.6217L21.1974 17.0659C21.3509 16.6054 21.8484 16.3565 22.3092 16.51C22.7696 16.6635 23.0185 17.1612 22.865 17.6218L22.6798 18.1777C22.3202 19.2561 21.315 19.9806 20.1783 19.9806H9.82166C8.68494 19.9806 7.67971 19.2561 7.32023 18.1777L7.13496 17.6218C6.98145 17.1613 7.23035 16.6635 7.69084 16.51C8.15139 16.3566 8.64908 16.6054 8.8026 17.0659L8.98787 17.6218C9.08713 17.9196 9.33434 18.1359 9.63158 18.2016L12.2029 7.91614C13.0198 4.64877 16.7766 3.11731 19.645 4.88245L22.4919 6.6344C23.1642 7.04813 22.9925 8.06965 22.2219 8.24092L18.7565 9.01096C18.2651 9.12018 17.9656 9.6191 18.1004 10.1042ZM6.79688 25.3126C5.98916 25.3126 5.33203 25.9697 5.33203 26.7775C5.33203 27.5852 5.98916 28.2423 6.79688 28.2423H24.668V25.3126H6.79688Z" fill="url(#paint1_linear_8319_832)"/>
<defs>
<linearGradient id="paint0_linear_8319_832" x1="15" y1="30" x2="15" y2="0" gradientUnits="userSpaceOnUse">
<stop stop-color="#FD5900"/>
<stop offset="1" stop-color="#FFDE00"/>
</linearGradient>
<linearGradient id="paint1_linear_8319_832" x1="15" y1="28.2423" x2="15" y2="4.14042" gradientUnits="userSpaceOnUse">
<stop stop-color="#FFEDAD"/>
<stop offset="1" stop-color="#FFFFE5"/>
</linearGradient>
</defs>
</svg>
