<svg width="30" height="30" viewBox="0 0 30 30" fill="none" xmlns="http://www.w3.org/2000/svg">
<path d="M15.7323 15.4923L8.78904 1.60547L7.91013 2.69531L7.03122 1.60547L0.0923731 15.4923C-0.030791 15.7383 -0.030791 16.0196 0.0923731 16.2656L3.48044 23.0508L7.91019 24.8086L12.3399 23.0508L15.7324 16.2656C15.8555 16.0196 15.8555 15.7382 15.7323 15.4923Z" fill="url(#paint0_linear_8319_850)"/>
<path d="M12.3395 23.0508H3.47998L2.65387 28.0429C2.60108 28.289 2.67145 28.5527 2.84723 28.7461C3.00537 28.957 3.25147 29.0625 3.5152 29.0625H12.3043C12.568 29.0625 12.8141 28.957 12.9722 28.7461C13.148 28.5527 13.2183 28.2891 13.1656 28.0429L12.3395 23.0508ZM7.90973 0.9375C7.58002 0.9375 7.30387 1.12623 7.15346 1.39453C7.14479 1.40936 7.12662 1.41404 7.11883 1.42975L7.03082 1.60547V12.1523L5.36096 15.4922C5.20258 15.8261 5.25537 16.2305 5.53668 16.4941L7.29449 18.2519C7.4527 18.4277 7.68121 18.5156 7.90973 18.5156C8.13824 18.5156 8.36676 18.4277 8.5249 18.2519L10.2827 16.4941C10.564 16.2305 10.6168 15.8261 10.4584 15.4922L8.78864 12.1523V2.73984C19.5255 3.20484 28.2418 12.06 28.2418 22.9102C28.2418 23.396 28.6349 23.7891 29.1207 23.7891C29.6065 23.7891 29.9996 23.396 29.9996 22.9102C29.9996 10.7943 20.0256 0.9375 7.90973 0.9375Z" fill="url(#paint1_linear_8319_850)"/>
<defs>
<linearGradient id="paint0_linear_8319_850" x1="7.91236" y1="24.8087" x2="7.91236" y2="1.60547" gradientUnits="userSpaceOnUse">
<stop stop-color="#5558FF"/>
<stop offset="1" stop-color="#00C0FF"/>
</linearGradient>
<linearGradient id="paint1_linear_8319_850" x1="16.3182" y1="29.0625" x2="16.3182" y2="0.9375" gradientUnits="userSpaceOnUse">
<stop stop-color="#ADDCFF"/>
<stop offset="0.5028" stop-color="#EAF6FF"/>
<stop offset="1" stop-color="#EAF6FF"/>
</linearGradient>
</defs>
</svg>
