<svg width="30" height="30" viewBox="0 0 30 30" fill="none" xmlns="http://www.w3.org/2000/svg">
<path d="M21.1523 13.2422V6.15234C21.1523 2.75977 18.3925 0 15 0C11.6075 0 8.84766 2.75977 8.84766 6.15234V13.2422L15 15L21.1523 13.2422ZM23.7891 12.3633C23.3033 12.3633 22.9102 12.7564 22.9102 13.2422V14.1211H20.2734C19.7876 14.1211 19.3945 14.5142 19.3945 15C19.3945 15.4858 19.7876 15.8789 20.2734 15.8789H22.9102V16.7578C22.9102 21.1197 19.3619 24.668 15 24.668C10.6381 24.668 7.08984 21.1197 7.08984 16.7578V15.8789H9.72656C10.2124 15.8789 10.6055 15.4858 10.6055 15C10.6055 14.5142 10.2124 14.1211 9.72656 14.1211H7.08984V13.2422C7.08984 12.7564 6.69674 12.3633 6.21094 12.3633C5.72514 12.3633 5.33203 12.7564 5.33203 13.2422V16.7578C5.33203 21.7921 9.20104 25.9351 14.1211 26.3812V29.1211C14.1211 29.6069 14.5142 30 15 30C15.4858 30 15.8789 29.6069 15.8789 29.1211V26.3812C20.799 25.9351 24.668 21.7921 24.668 16.7578V13.2422C24.668 12.7564 24.2749 12.3633 23.7891 12.3633Z" fill="url(#paint0_linear_8319_872)"/>
<path d="M8.84766 13.2422V16.7578C8.84766 20.1504 11.6075 22.9102 15 22.9102C18.3925 22.9102 21.1523 20.1504 21.1523 16.7578V13.2422H8.84766ZM20.2734 28.2422H9.72656C9.24076 28.2422 8.84766 28.6353 8.84766 29.1211C8.84766 29.6069 9.24076 30 9.72656 30H20.2734C20.7592 30 21.1523 29.6069 21.1523 29.1211C21.1523 28.6353 20.7592 28.2422 20.2734 28.2422ZM13.2422 10.6055C13.7276 10.6055 14.1211 10.212 14.1211 9.72656C14.1211 9.24117 13.7276 8.84766 13.2422 8.84766C12.7568 8.84766 12.3633 9.24117 12.3633 9.72656C12.3633 10.212 12.7568 10.6055 13.2422 10.6055ZM16.7578 10.6055C17.2432 10.6055 17.6367 10.212 17.6367 9.72656C17.6367 9.24117 17.2432 8.84766 16.7578 8.84766C16.2724 8.84766 15.8789 9.24117 15.8789 9.72656C15.8789 10.212 16.2724 10.6055 16.7578 10.6055ZM16.7578 7.08984C17.2432 7.08984 17.6367 6.69633 17.6367 6.21094C17.6367 5.72555 17.2432 5.33203 16.7578 5.33203C16.2724 5.33203 15.8789 5.72555 15.8789 6.21094C15.8789 6.69633 16.2724 7.08984 16.7578 7.08984ZM13.2422 7.08984C13.7276 7.08984 14.1211 6.69633 14.1211 6.21094C14.1211 5.72555 13.7276 5.33203 13.2422 5.33203C12.7568 5.33203 12.3633 5.72555 12.3633 6.21094C12.3633 6.69633 12.7568 7.08984 13.2422 7.08984Z" fill="url(#paint1_linear_8319_872)"/>
<defs>
<linearGradient id="paint0_linear_8319_872" x1="15" y1="30" x2="15" y2="0" gradientUnits="userSpaceOnUse">
<stop stop-color="#00B59C"/>
<stop offset="1" stop-color="#9CFFAC"/>
</linearGradient>
<linearGradient id="paint1_linear_8319_872" x1="15" y1="30" x2="15" y2="5.33203" gradientUnits="userSpaceOnUse">
<stop stop-color="#C3FFE8"/>
<stop offset="0.9973" stop-color="#F0FFF4"/>
</linearGradient>
</defs>
</svg>
