<svg width="30" height="30" viewBox="0 0 30 30" fill="none" xmlns="http://www.w3.org/2000/svg">
<path d="M28.5162 0.612504C27.0924 -0.40779 25.0985 -0.0997622 23.8599 1.13885L22.1356 2.86309C21.4492 3.54957 21.4492 4.66256 22.1356 5.34899L24.6215 7.83495C25.308 8.52143 26.421 8.52143 27.1075 7.83495L28.972 5.97049C30.4811 4.46135 30.3284 1.91106 28.5162 0.612504ZM20.8928 6.59194C20.2063 5.90545 19.0933 5.90545 18.4068 6.59194L4.60645 20.4218L5.90477 24.206L9.57824 25.3936L23.3787 11.5638C24.0651 10.8773 24.0651 9.76432 23.3787 9.07784L20.8928 6.59194Z" fill="url(#paint0_linear_8319_840)"/>
<path d="M22.1357 2.86304L18.4068 6.59194L23.3786 11.5638L27.1075 7.83489L22.1357 2.86304ZM4.45723 20.6206L0.106875 28.6999C-0.0794527 29.0355 -0.017402 29.4705 0.255996 29.7439C0.529395 30.0173 0.964395 30.0794 1.30002 29.893L9.37928 25.5427C9.4415 25.5054 9.51603 25.4557 9.5782 25.3935L4.60635 20.4216C4.54424 20.4839 4.49455 20.5585 4.45723 20.6206Z" fill="url(#paint1_linear_8319_840)"/>
<defs>
<linearGradient id="paint0_linear_8319_840" x1="5.84344" y1="24.1388" x2="28.9773" y2="1.00494" gradientUnits="userSpaceOnUse">
<stop stop-color="#FD3A84"/>
<stop offset="1" stop-color="#FFA68D"/>
</linearGradient>
<linearGradient id="paint1_linear_8319_840" x1="0.250919" y1="29.7312" x2="24.6275" y2="5.35454" gradientUnits="userSpaceOnUse">
<stop stop-color="#FFC2CC"/>
<stop offset="1" stop-color="#FFF2F4"/>
</linearGradient>
</defs>
</svg>
