<svg width="30" height="30" viewBox="0 0 30 30" fill="none" xmlns="http://www.w3.org/2000/svg">
<path d="M6.21094 10.6055H2.69531C2.20951 10.6055 1.81641 10.9986 1.81641 11.4844V18.5156C1.81641 19.0014 2.20951 19.3945 2.69531 19.3945H6.21094C6.69674 19.3945 7.08984 19.0014 7.08984 18.5156V11.4844C7.08984 10.9986 6.69674 10.6055 6.21094 10.6055ZM13.2422 7.08984H9.72656C9.24076 7.08984 8.84766 7.48295 8.84766 7.96875V22.0312C8.84766 22.5171 9.24076 22.9102 9.72656 22.9102H13.2422C13.728 22.9102 14.1211 22.5171 14.1211 22.0312V7.96875C14.1211 7.48295 13.728 7.08984 13.2422 7.08984ZM20.2734 0H16.7578C16.272 0 15.8789 0.393105 15.8789 0.878906V29.1211C15.8789 29.6069 16.272 30 16.7578 30H20.2734C20.7592 30 21.1523 29.6069 21.1523 29.1211V0.878906C21.1523 0.393105 20.7592 0 20.2734 0ZM27.3047 7.08984H23.7891C23.3033 7.08984 22.9102 7.48295 22.9102 7.96875V22.0312C22.9102 22.5171 23.3033 22.9102 23.7891 22.9102H27.3047C27.7905 22.9102 28.1836 22.5171 28.1836 22.0312V7.96875C28.1836 7.48295 27.7905 7.08984 27.3047 7.08984Z" fill="url(#paint0_linear_8319_861)"/>
<path d="M29.1211 14.1211H0.878906C0.393105 14.1211 0 14.5142 0 15C0 15.4858 0.393105 15.8789 0.878906 15.8789H29.1211C29.6069 15.8789 30 15.4858 30 15C30 14.5142 29.6069 14.1211 29.1211 14.1211Z" fill="url(#paint1_linear_8319_861)"/>
<defs>
<linearGradient id="paint0_linear_8319_861" x1="15" y1="30" x2="15" y2="0" gradientUnits="userSpaceOnUse">
<stop stop-color="#A93AFF"/>
<stop offset="1" stop-color="#FF81FF"/>
</linearGradient>
<linearGradient id="paint1_linear_8319_861" x1="15" y1="15.8789" x2="15" y2="14.1211" gradientUnits="userSpaceOnUse">
<stop stop-color="#FFBEF9"/>
<stop offset="1" stop-color="#FFF1FF"/>
</linearGradient>
</defs>
</svg>
