<svg width="30" height="30" viewBox="0 0 30 30" fill="none" xmlns="http://www.w3.org/2000/svg">
<path d="M25.5469 0H6.21094C5.72514 0 5.33203 0.393105 5.33203 0.878906V29.1211C5.33203 29.6069 5.72514 30 6.21094 30H25.5469C26.0327 30 26.4258 29.6069 26.4258 29.1211V0.878906C26.4258 0.393105 26.0327 0 25.5469 0Z" fill="url(#paint0_linear_8319_1402)"/>
<path d="M22.0312 15.8789H21.0499C22.1943 14.7609 22.9102 13.2066 22.9102 11.4844C22.9102 8.09232 20.1499 5.33203 16.7578 5.33203C13.3658 5.33203 10.6055 8.09232 10.6055 11.4844C10.6055 14.8764 13.3658 17.6367 16.7578 17.6367H22.0312C22.5171 17.6367 22.9102 17.2436 22.9102 16.7578C22.9102 16.272 22.5171 15.8789 22.0312 15.8789ZM16.7578 8.84766C17.2432 8.84766 17.6367 9.24105 17.6367 9.72656C17.6367 10.212 17.2432 10.6055 16.7578 10.6055C16.2724 10.6055 15.8789 10.212 15.8789 9.72656C15.8789 9.24105 16.2724 8.84766 16.7578 8.84766ZM15 12.3633C14.5146 12.3633 14.1211 11.9698 14.1211 11.4844C14.1211 10.9989 14.5146 10.6055 15 10.6055C15.4854 10.6055 15.8789 10.9989 15.8789 11.4844C15.8789 11.9698 15.4854 12.3633 15 12.3633ZM16.7578 14.1211C16.2724 14.1211 15.8789 13.7276 15.8789 13.2422C15.8789 12.7567 16.2724 12.3633 16.7578 12.3633C17.2432 12.3633 17.6367 12.7567 17.6367 13.2422C17.6367 13.7276 17.2432 14.1211 16.7578 14.1211ZM18.5156 12.3633C18.0302 12.3633 17.6367 11.9698 17.6367 11.4844C17.6367 10.9989 18.0302 10.6055 18.5156 10.6055C19.001 10.6055 19.3945 10.9989 19.3945 11.4844C19.3945 11.9698 19.001 12.3633 18.5156 12.3633ZM7.96875 6.21094H4.45312C3.96732 6.21094 3.57422 6.60404 3.57422 7.08984C3.57422 7.57564 3.96732 7.96875 4.45312 7.96875H7.96875C8.45455 7.96875 8.84766 7.57564 8.84766 7.08984C8.84766 6.60404 8.45455 6.21094 7.96875 6.21094ZM7.96875 11.4844H4.45312C3.96732 11.4844 3.57422 11.8775 3.57422 12.3633C3.57422 12.8491 3.96732 13.2422 4.45312 13.2422H7.96875C8.45455 13.2422 8.84766 12.8491 8.84766 12.3633C8.84766 11.8775 8.45455 11.4844 7.96875 11.4844ZM7.96875 16.7578H4.45312C3.96732 16.7578 3.57422 17.1509 3.57422 17.6367C3.57422 18.1225 3.96732 18.5156 4.45312 18.5156H7.96875C8.45455 18.5156 8.84766 18.1225 8.84766 17.6367C8.84766 17.1509 8.45455 16.7578 7.96875 16.7578ZM7.96875 22.0312H4.45312C3.96732 22.0312 3.57422 22.4244 3.57422 22.9102C3.57422 23.396 3.96732 23.7891 4.45312 23.7891H7.96875C8.45455 23.7891 8.84766 23.396 8.84766 22.9102C8.84766 22.4244 8.45455 22.0312 7.96875 22.0312ZM20.2734 19.3945H11.4844C10.9986 19.3945 10.6055 19.7876 10.6055 20.2734C10.6055 20.7592 10.9986 21.1523 11.4844 21.1523H20.2734C20.7592 21.1523 21.1523 20.7592 21.1523 20.2734C21.1523 19.7876 20.7592 19.3945 20.2734 19.3945ZM20.2734 22.9102H15C14.5142 22.9102 14.1211 23.3033 14.1211 23.7891C14.1211 24.2749 14.5142 24.668 15 24.668H20.2734C20.7592 24.668 21.1523 24.2749 21.1523 23.7891C21.1523 23.3033 20.7592 22.9102 20.2734 22.9102Z" fill="url(#paint1_linear_8319_1402)"/>
<defs>
<linearGradient id="paint0_linear_8319_1402" x1="15.8789" y1="30" x2="15.8789" y2="0" gradientUnits="userSpaceOnUse">
<stop stop-color="#00B59C"/>
<stop offset="1" stop-color="#9CFFAC"/>
</linearGradient>
<linearGradient id="paint1_linear_8319_1402" x1="13.2422" y1="24.668" x2="13.2422" y2="5.33203" gradientUnits="userSpaceOnUse">
<stop stop-color="#C3FFE8"/>
<stop offset="0.9973" stop-color="#F0FFF4"/>
</linearGradient>
</defs>
</svg>
