<svg width="60" height="60" viewBox="0 0 60 60" fill="none" xmlns="http://www.w3.org/2000/svg">
<path d="M12.1959 0C15.855 0 19.1154 1.84922 22.0005 5.57267C24.8856 9.27113 26.3164 14.1691 26.3164 20.2666C26.3164 25.4394 23.6893 33.3611 18.4587 44.0067C13.2045 54.6772 9.31082 60 6.75413 60C5.32331 60 4.59618 59.2003 4.59618 57.626C4.59618 57.2012 6.09737 53.7526 9.07628 47.2553C12.0786 40.758 13.5564 35.6601 13.5564 32.0117C13.5564 29.1878 11.8675 26.8638 8.46643 25.0646C5.08878 23.2653 2.81355 21.3911 1.68767 19.4419C0.561785 17.4927 -0.00115967 15.3686 -0.00115967 13.1195C-0.00115967 9.04623 1.12473 5.82256 3.3765 3.49853C5.69864 1.1745 8.60716 0 12.1959 0Z" fill="#F4F9FF"/>
<path d="M45.8796 0C49.5387 0 52.8225 1.84922 55.6841 5.57267C58.5692 9.27113 60 14.1691 60 20.2666C60 25.4394 57.3729 33.3611 52.1423 44.0067C46.9116 54.6772 42.9945 60 40.4613 60C39.0305 60 38.3034 59.2003 38.3034 57.626C38.3034 57.2012 39.8045 53.7526 42.7834 47.2553C45.7857 40.758 47.2635 35.6601 47.2635 32.0117C47.2635 29.1878 45.5747 26.8638 42.1736 25.0646C38.7959 23.2653 36.5207 21.3911 35.3948 19.4419C34.2689 17.4927 33.706 15.3686 33.706 13.1195C33.706 9.04623 34.8319 5.82256 37.0836 3.49853C39.3354 1.1745 42.2908 0 45.8796 0Z" fill="#F4F9FF"/>
</svg>
