<svg width="170" height="170" viewBox="0 0 170 170" fill="none" xmlns="http://www.w3.org/2000/svg">
<circle opacity="0.1" cx="85" cy="85" r="85" fill="#17BD8D"/>
<path d="M102.39 93.6404C101.178 92.1294 99.3354 91.9574 97.8264 93.1664C96.0434 94.5944 93.4344 96.4294 91.2844 97.6244C90.5794 95.2724 90.2744 92.1304 89.7064 89.5914L89.7544 75.0704C89.7544 75.0704 97.6374 74.0294 99.9124 73.6844C102.336 73.4584 102.707 71.3264 102.191 69.8294C102.066 69.4654 98.8994 60.3994 98.3474 58.6474C97.8054 56.9284 96.3454 55.9074 94.4694 56.4344C92.7314 56.9224 92.2084 58.5994 92.7384 60.3204C93.4774 62.7274 95.4454 68.5444 95.4454 68.5444L88.5394 69.4764L77.3734 67.0754C74.5304 64.0574 72.7004 60.6924 72.0364 55.8244C71.7924 54.0374 70.6644 52.7864 68.6244 53.0304C66.8354 53.2444 65.7904 54.9194 66.0354 56.7054C67.0364 64.0524 70.3444 70.2674 75.4014 74.4004V88.7754C71.9304 97.6504 71.8894 106.809 77.0064 114.939C77.6724 115.995 78.8084 116.574 79.9694 116.574C80.6074 116.574 81.2514 116.397 81.8304 116.036C83.4634 115.005 83.9554 112.848 82.9264 111.212C80.0914 106.71 78.7774 101.246 80.1954 94.8874C80.4234 93.8644 81.3494 93.1464 82.3974 93.1844H82.4004C83.3874 93.2194 84.2244 93.9134 84.4434 94.8754C85.0664 97.5964 85.3744 100.247 85.8454 101.902C86.7684 105.138 89.9954 105.711 92.0494 104.631C96.2254 102.436 98.8334 100.861 101.842 98.5554C103.377 97.3804 103.597 95.1454 102.39 93.6404Z" fill="#17BD8D"/>
<path d="M83.9568 66.6784C86.9187 66.6784 89.3198 64.2773 89.3198 61.3154C89.3198 58.3535 86.9187 55.9524 83.9568 55.9524C80.9948 55.9524 78.5938 58.3535 78.5938 61.3154C78.5938 64.2773 80.9948 66.6784 83.9568 66.6784Z" fill="#17BD8D"/>
</svg>
