<svg width="170" height="170" viewBox="0 0 170 170" fill="none" xmlns="http://www.w3.org/2000/svg">
<circle opacity="0.1" cx="85" cy="85" r="85" fill="#4289FF"/>
<path d="M85 57C76.729 57 70 63.6534 70 71.8315C70 80.0097 76.729 86.6631 85 86.6631C93.271 86.6631 100 80.0097 100 71.8315C100 63.6534 93.271 57 85 57Z" fill="#4289FF"/>
<path d="M103.663 96.3522C99.5562 92.2293 94.1121 89.9587 88.3333 89.9587H81.6667C75.888 89.9587 70.4438 92.2293 66.3371 96.3522C62.2506 100.455 60 105.871 60 111.602C60 112.512 60.7462 113.25 61.6667 113.25H108.333C109.254 113.25 110 112.512 110 111.602C110 105.871 107.749 100.455 103.663 96.3522Z" fill="#4289FF"/>
</svg>
